<?xml version="1.0" encoding="UTF-8"?><svg id="a" xmlns="http://www.w3.org/2000/svg" viewBox="0 0 457.44 548.56"><defs><style>.b,.c{fill:#1a140f;}.d{fill:#d4c9b4;}.e{fill:#bdb09f;stroke-width:7px;}.e,.c,.f,.g,.h{stroke:#1a140f;stroke-miterlimit:10;}.i{fill:#a08d7c;}.j{fill:#665a49;}.f{fill:#f3e0c4;}.k{fill:#a79f8e;}.l{fill:#e4cda1;}.m{fill:#bdb19e;}.g,.n{fill:#7b4c31;}.h{fill:#18120c;}.o{fill:#627270;}</style></defs><path class="b" d="M401.78,326.3c-.22-.82.15-2.21,0-3.15-8.56-24.51-17.36-41.92-37.75-58.85-2.57-2.13-16.67-11.04-16.97-12.03-.13-.45-10.49-3.23-16.16-1.99-21.44,12.5-47.08,19.35-67.58,20-9.29,1.54-18.91,2.3-28.33,2.52-1.67.04-3.36,0-5.03,0-1.05,0-2.1,0-3.15,0h-.63c-1.05-.01-2.1.03-3.14,0-.42-.01-.59-.63-.63-.63-2.92-.09-5.91.19-8.82,0-.62-.04-1.26.05-1.88,0-10.28-.72-20.72-1.88-30.84-3.77-18.98-3.56-38.04-9.37-54.22-19.07-4.6.46-9.06,1.98-13.82,2.35.02.01.04.02.05.04-6.92,5.09-14.35,9.66-20.75,15.42l-1.89,1.89c-.22.2-.42.42-.63.63-2.07,2.05-3.76,4.68-6.3,6.29-34.86,42.64-39.34,88.18,8.36,122.87,2.37,1.72,11.24,6.45,12.25,7.57.91,1,.58,2.45.79,3.62.04.21.54.71.66,1.52,2.27,15.49.84,36.1,4.38,50.71.05.21-.06.45,0,.63,2.91,3.64,7.58,5.09,11.95,6.31l-2.51,2.5c-.91,1.83-2.33,3.1-3.08,4.79-.7,1.58-1.08,5.19-1.64,5.92-.32.43-8.34,3.07-9.98,3.86-9.8,4.72-16.68,12.09-19.92,22.57.67,1.86-.63,4.74-.63,5.98v11.33c0,.58,1.7,2.81,1.26,4.09,5.42,9.26,13.83,12.87,23.91,15.42,2.34.59,14.56,2.29,15.11,2.83,8.43.24,16.85-.04,25.18-.63,16.52-1.17,56.09-7.86,66.41-21.38,3.22-4.22,2.89-6.19,3.5-11.01,1.37-10.82,2.75-24.6-1.65-34.93-.78-1.82-4.22-6.76-4.11-7.87.21-2.11,4.66-2.66,6.34-3.48,6.82-8.29,4.51-22.46,6.57-32.76.56-2.03,2.31-2.09,4.13-1.86.71.09.79.07,1.26.63,1.08,1.29,1.01,5.62,1.26,7.55.83,6.48.82,22.46,6.32,26.09,1.9,1.25,6.72,1.62,6.94,3.83.11,1.15-4.17,7.33-4.94,9.56-.96,2.79-1.13,5.6-2.03,8.36.12,4.64.23,9.86,0,14.47,1.29,6.45-.11,12.09,2.69,18.4,6.27,14.15,40.32,20.55,54.46,22.94,5.06.86,8.74,1.44,13.34,1.46,6.75.03,13.53.99,20.48.65,6.86-.33,13.62-1.91,20.43-2.54,10.25-3.14,23.6-8.28,25.1-20.53,2.75-22.39-8.07-34.83-27.9-42.44-.9-.34-3.28-.54-3.41-.68-.23-.22-.95-4.61-1.72-6.14-1.44-2.84-4.31-4.09-5.29-6.98,5.32-2.18,10.49-2.63,12.3-8.8,2.92-9.98,2.01-27.72,3.38-38.78.14-1.17,1.23-.84,1.24-1.17.02-1.46-.91-3.58-.61-5.75.17-1.19,1.23-.85,1.24-1.17.01-1.46-1.42-4.1-.24-6.02,19.2-11.08,36.98-25.61,44.85-47.04.73-2.01.87-3.95,1.41-5.83.25-.87.41-1.65.63-2.52.1-.41.53-.86.63-1.26v-23.91c-.04-.16-.57-.39-.63-.63ZM156.95,271.54c2.37-.42.65.39,2.15.76,2.41.6,4.04,1.26,6.03,1.76.83.21,1.7.43,2.52.63,3.86.93,8.05,1.71,11.96,2.52,2.05.42,4.25.89,6.29,1.26,3.1.56,3.27-.07,5.31-.02.4.01.11,1.31,1.27,1.35,2.31.08,4.45-.32,7.27-.07,1.28.1,2.49.53,3.77.62.63.05,1.27-.04,1.89,0,4.25.28,8.32.52,12.59.63,1.47.04,2.94-.02,4.41,0,5,.09,10.09.1,15.1,0,1.47-.02,2.94.05,4.41,0,4.64-.13,9.21-.28,13.84-.63,1.25-.09,2.54.12,3.78,0,4.25-.39,10.21-1.21,14.47-1.88,2.02-.32,4.25-.87,6.3-1.26,3.42-.65,7.98-1.63,11.33-2.52.58-.15,1.21-.45,1.89-.63,5.29-1.45,10.38-3.78,15.73-5.03-3.81,4.34-9.44,6.86-14.48,9.44-.67.34-1.4.39-1.88.63-5.42,2.62-7.78,3.75-13.85,5.66-1.5.47-2.89.85-4.41,1.26-5.42,1.47-8.93,2.21-14.47,3.15-1.52.25-2.89.41-4.41.63-4.54.63-9.14,1.64-13.84,1.88-1.26.07-2.53-.04-3.78,0-5.27.2-11.09.17-16.36,0-1.26-.03-2.53.06-3.78,0-5.37-.24-9.4-1.15-14.48-1.88-1.31-.2-2.48-.41-3.77-.63-5.68-.99-8.93-1.68-14.48-3.15-.84-.22-1.54-.35-2.51-.63-7.49-2.19-20.85-6.37-26.44-11.96-1.55.5-1.16-1.19-1.26-1.26-1.12-.77-4.52-1.05-4.4-3.77l6.29,3.14ZM113.53,404.97c-1.24-1.18,4.73-7.75,5.66-8.81.19-.22.43-.41.63-.63,1.03-2.01,2.39-3.38,4.4-4.41,2.23-2.17,4.54-6.2,8.17-3.44,2.31,1.75.67,3.95-.83,5.74-1.52,1.8-6.69,6.43-8.6,7.77-1.32.94-8.23,4.92-9.43,3.78ZM122.75,485.01c4.56-1.55,26.86,4.84,26.56,10.17-.1,1.69-2.52,3.8-4.47,3.47-1.86-.32-10.17-5.29-13.07-6.5-1.66-.69-10.36-3.03-10.67-3.5-.47-.73.61-3.28,1.65-3.64ZM124.86,477.67c1.65-3.87,11.4-5.7,15.26-5.2,4.92.63,19.66,6.65,21.13,11.63,1.11,3.76-4.22,7.58-7.29,6.29-.25-.11-3.07-3.23-3.98-3.86-9.21-6.42-13.34-5.67-23.58-7.9-.61-.14-2.1.36-1.54-.96ZM211.07,514.88c-.04.45-.11.9-.19,1.33-.03.2-.07.39-.12.58-.03.16-.07.31-.12.46-.03.13-.06.26-.11.39-.05.19-.12.37-.19.55-.08.25-.17.48-.28.72-.1.22-.2.44-.31.66-.1.23-.22.45-.35.66-.12.22-.25.43-.39.64-.07.11-.15.23-.23.34-.43.65-.94,1.27-1.49,1.85-.14.16-.3.32-.46.47-.23.23-.47.46-.72.68-.25.22-.5.43-.76.64-.17.14-.36.29-.54.42-.17.13-.35.27-.54.39-.46.33-.94.65-1.43.95-.24.15-.48.29-.73.43-.24.14-.49.28-.74.42-.46.25-.93.5-1.41.73-.44.21-.89.42-1.34.62-.45.2-.91.4-1.38.59-.56.23-1.14.45-1.72.66-.37.14-.74.27-1.12.4-.32.11-.65.22-.98.33-.51.17-1.01.33-1.52.48-.27.09-.54.17-.81.24-.11.04-.23.07-.34.1-.68.2-1.36.39-2.03.57-3.26.88-6.49,1.58-9.35,2.24-.21.04-.42.09-.62.14-.61.14-1.2.27-1.77.41-.13.03-.26.06-.39.09-.27.07-.52.13-.76.19-.2.05-.43-.04-.63,0-7.83,2.58-16.32,3.72-24.54,4.41-.21.01-.42-.02-.63,0-1.65.13-4.85.63-5.98.63h-13.22c-2.82,0-7.98-.84-11.01-1.26-.21-.03-.43.03-.63,0-5.74-.86-13.05-2.53-18.25-5.04-4.76-2.29-7.4-4.16-8.11-9.82-1.1-8.81,3.73-3.32,9.04-1.5,3.13,1.08,5.93,1.77,9.14,2.51.61.14,1.22.27,1.83.4.45.1.91.19,1.37.29.61.12,1.23.24,1.85.35.24.04.48.08.73.13.53.1,1.05.19,1.58.27,1.01.18,2.02.33,3.03.47.51.08,1.02.15,1.52.21.79.11,1.59.21,2.38.3h.03c1.83.2,3.67.37,5.5.51.63.05,1.26.09,1.88.12,4.07.23,8.1.28,11.99.12,2.2-.09,4.59-1.54,6.59-.02,7.36-1.07,16.34-2.63,23.78-4.35,8.99-2.08,17.34-4.18,25.94-7.61,3.43-1.37,6.63-3.07,10.06-4.4.1,1.02.1,1.99,0,2.91ZM211.39,503.78c-.91,1.64-12.2,6.45-14.63,7.4-24.82,9.58-60.46,13.8-86.4,7.41-2.91-.71-16.32-5.53-16.84-8.28-.44-2.34,5.26-9.84,7.07-11.59,2.39-2.3,10.26-7.25,13.37-7.42.98-.05,2.53,2.06,3.96,2.73,4.44,2.07,10.04,3.22,14.72,5.42,6.34,2.99,13.53,10.76,20.53,3.38,1.28-1.35,2.7-5.37,3.14-5.67,1.53-1.03,4.51-.4,7.58-3.12,1.29-1.15,3.46-5.08,4.17-5.29.74-.21,7.5,1.65,9.36,1.8,7.28.61,17.54-.25,24.2-3.46,1.64-.79,6.1-4.55,6.71-4.64,1.79-.27,3.14,7.04,3.3,8.51.21,2,.42,11.61-.24,12.82ZM165.42,475.45c1.68-.38,3.05-.5,4.75-.62.82-.05,1.69-.01,2.52,0,.21.01.42-.01.62,0,.42.02.86-.05,1.26,0,.54.07,1.06.02,1.26.63.62.05,1.27-.01,1.89,0h.63c.42.01.84.02,1.26,0,.63-.75,1.25-.75,1.89,0,.84-.01,1.68.02,2.51,0,6.02-.16,9.89-.5,15.55-1.87,1.37-.33,3.14.38,4.59-.65-1.15,6.61-9.07,8.78-14.86,9.37-5.99.6-22.6.82-25.41-5.91-.55-1.33.93-.82,1.54-.95ZM365.27,528.96c-2.71,3.84-3.15,3.53-7.55,5.03-17.57,8.2-38.01,6.76-56.64,4.41-2.01-.25-4.41-.33-6.3-.63-12.08-1.91-47.21-7.97-45.94-24.24.29-3.82,1.28-.57,1.73-.34,10.3,5.17,21.78,7.88,32.89,10.73.2.04.42-.03.62,0,22.19,3.96,41.78,6.66,64.21,1.58,7.14-1.61,12.78-3.89,19.5-6.61.43,4.65.05,6.43-2.52,10.07ZM346.4,491.44c6.58.91,16.19,9.19,18.8,15.25,1.41,3.26,1.72,4.4.6,5.48-.13.13-.29.26-.46.39-.08.07-.17.13-.27.2-.19.13-.41.27-.64.42-.47.29-1.02.62-1.66,1-20.91,12.5-70.91,6.63-93.64-.79-3.21-1.05-19.03-7.34-20.34-9.4-1.52-2.38-.14-19.71,1.92-21.31.98-.75,5.51,3.14,6.91,3.82,7.67,3.72,16.41,4.77,24.88,4.05,1.64-.14,9.29-2.1,9.7-1.83.36.23,2.63,4.96,5.13,6.54,2.16,1.35,5.3,1.24,6.28,1.9.54.37,1.86,4.63,3.8,6.27,7.2,6.12,14.55-1.45,21.25-4.48,3.46-1.57,7.31-2.34,10.61-3.87,2.44-1.14,5.07-3.92,7.13-3.64ZM256.4,473.57c3.48.82,8.83-.14,12.15.65,1.85.44.24.7,4.21.61,5.88-.13,12.54-.43,18.25.63,1.45-.09,2.94.06,4.4,0,.32,1.39-.78,1.32-1.88,2.52-.82.89-2.45,2.82-3.45,3.21-3.86,1.49-13.68,1.56-17.95,1.19-5.39-.46-15.09-2.29-15.73-8.81ZM302.96,479.54c4.84-3.92,14.72-7.75,20.92-7.07,3.25.36,9.02,2.67,9.92,6.13-8.79.8-16.16,2.95-23.72,7.44-3.77,2.24-4.7,5.75-9.61,2.3-4.63-3.26-.78-6.14,2.49-8.8ZM338.83,488.66l-5.02,1.28c-3.59,1.62-7.33,2.9-10.93,4.49-2.41,1.07-7.66,5.01-9.83,4.01-1.2-.55-3.09-3.38-2.24-4.72,1.25-1.99,12.82-7.22,15.44-7.56.27.02.54.03.82.01h.06c.68-.04,1.39-.18,2.09-.36.21-.05.42-.11.63-.16.21-.06.42-.11.63-.17.32-.09.64-.17.95-.25.12-.03.24-.06.37-.09.12-.03.24-.06.36-.08.36-.08.7-.13,1.02-.16.74-.06,1.78-.08,2.51,0,2.56.29,3.08,1.07,3.14,3.76ZM341.93,455.58c-.25,1.28-.42,2.6-1.58,3.46-2.33,1.74-15.44,4.27-19.02,4.89-18.69,3.25-46.48,4.52-65.08,1.29-4.71-.82-12.33-1.51-12.92-7.22-1.04-4.62-1.42-28.41-3.24-30.75-.58-.76-1.37-.8-2.24-.91-2.23-.29-17.32-.23-18.34.59-1.8,1.46-2.9,22.8-3.41,26.81-1.09,8.63-1.39,9.38-10.49,10.94-5.1.88-11.27,1.75-16.56,1.97-7.62.32-16.28.25-23.92,0-11.24-.36-23.77-1.48-34.74-3.97-3.59-.81-11.53-2.44-12.67-6.2l-3.49-43.88c9.78-.2,16.21-6.38,22.27-13.29,1.19-1.35,4.55-6.87,5.35-7.27,1.55-.76,14.58,3.23,17.6,3.83,13.76,2.7,26.56,2.1,39.39,4.02.08.01.14.03.21.04.12.04.22.08.3.14.03.02.06.04.09.07l.08.08s.08.1.12.15c0,0,.01.01.01.02.04.06.08.12.11.19.07.12.13.25.22.35.04.05.09.1.15.14.01.01.02.02.04.03.05.03.12.06.19.09.04.01.09.03.14.04.05,0,.11.02.17.03,5.87.64,16.66-.74,23.33-.72,17.76.05,34,.66,51.58-1.24,13.91-1.5,27.46-3.97,40.95-7.61.5-.03.96-.02,1.41.21.45.24,4.69,7.02,5.82,8.33,3.71,4.33,9.97,10.04,15.54,11.52,2.27.6,4.22-.74,5.8,1.87l-3.17,41.96ZM191.57,381.68c.5.26,5.03-.03,6.29,0,.21.01.42,0,.63,0,.42.01.84,0,1.26,0,2.3.04,4.62-.02,6.92,0,1.26.02,2.52,0,3.78,0,.21.01.42,0,.63,0,2.51.02,5.04-.03,7.55,0,.42.01.84,0,1.26,0,2.51.03,5.04,0,7.55,0h5.67c5.27.02,10.56,1.05,15.73.63.83-.06,3-1.14,4.41-1.26,4.99-.39,10.76.28,16.36,0,1.72-.08,2.42,0,3.78,0,3.55,0,9.38-.81,13.21-1.25.11-.01.22-.03.33-.04.02-.01.04-.01.06-.01.36-.06.77-.13,1.19-.21.7-.13,1.47-.28,2.2-.37,4.32-.55,8.94-1.1,13.22-1.89,1.58-.3,3.21-.38,4.4-.63,4.72-1,11.84-4.53,16.07-5.02,1.4-.17.92.53.95,1.57.04,1.24-.37,4.41-.82,5.48-1.37,3.2-12.66,7.2-16.2,7.41-.2.01-.42.01-.63,0-4.75,3-10.97,2.93-16.36,3.78-.57.09-1.39.46-2.52.63-1.48.21-2.91.46-4.41.62-3.62.41-6.49.46-10.07.63-2.28.12-2.88.08-5.03,0-3.92-.14-3.48,1.13-4.68,1.31-3.2.5-8.14-.22-11.68-.05-1.26.06-2.53-.04-3.78,0-5.6.21-11.24.62-16.99.63-1.72,0-3.69-.62-4.41-.63-5.89-.02-10.98.17-16.99,0-1.26-.03-2.52.04-3.78,0-5.3-.17-10.44-.28-15.73-.63-.21-.01-.42.02-.63,0-1.83-.12-3.6-.51-5.04-.63-.41-.03-.84.04-1.26,0-.06,0-.27.04-.63,0-4.41-.41-8.82-.58-13.21-1.25-1.12-.18-1.91-.53-2.52-.63-5.31-.91-10.7-1.65-15.73-3.78-4.29-.23-11.43-2.74-14.48-5.66-1.4-1.35-3.93-6.69-2.51-8.19.65-.68,15.85,4.58,18.24,5.04.21.04.43-.04.63,0,4.8.89,10.78,1.32,15.74,1.89.95.11,1.7.61,1.89.63,4.51.5,10.28.77,14.47.63,1.36-.05,4.22-.29,5.25,0,.66.17.36,1.23.42,1.26ZM345.76,404.34c-6.28.95-14.31-5.98-17.88-10.75-4.2-5.61-.68-8.77,4.61-5.23,5.22,3.49,9.42,9.1,12.24,14.53.17.31,1.61-.1,1.03,1.45ZM384.78,370.36c-5.77,8.88-10.87,13.05-18.88,19.51-1.13.91-1.88,1.58-3.14,2.51-2.74,2.03-5.73,5.47-9.43,6.64-2.74.87-1.54-.34-2.53-1.6-.88-1.13-1.88-3-2.52-3.78-1.8-2.2-5.59-6.69-7.55-8.5-1.19-1.11-8.06-5.31-8.2-5.79-.52-1.89,1.64-9.83,2.68-11.68,1.23-2.2,3.08-2.32,4.26-3.61.95-1.04,2.38-2.65,3.15-3.77,1.4-2.07,2.62-4.58,3.43-6.96.89-2.6,1.53-8.38,2.58-10,1.09-1.69,6.45-3.53,8.46-5.07,2.14-1.65,4.35-3.62,2.45-6.55-3.17-4.88-11.58,2.34-12.51,1.51-.89-4.71-2.47-9.26-3.78-13.84-1.09-3.8-3.63-16.6-6.33-18.57-1.96-1.43-4.71-.06-5.37,2.19-.6,2.02,1.08,6.49,1.63,8.82,2.91,12.4,11.24,33.23,1.88,44.06-.19.22-.41.43-.63.63-1.01,2.81-3.97,3.92-6.29,5.03-.07.31.21.89-.07,1.17-.57.56-6.27,2.15-7.48,2.61-10.02,3.81-19.67,5.62-30.21,6.92-25.69,3.17-54.61,3.13-80.56,2.52-20.19-.48-67.49-1.73-82.46-15.41-1.56-1.43-2.7-2.92-3.77-4.73-.88-1.49-1.86-3.25-1.88-5.03-.11-.28-.41-.64-.63-1.26-2.56-7.12,1.76-24.62,3.95-32.23.37-1.29.56-2.78,1.71-3.65.43-2.45,1.93-7.22,1.41-9.26-.69-2.63-3.47-3.71-5.82-2.38-1.09.62-6,17.08-6.92,19.82-.63,2.17-1.78,10.91-2.83,11.98-1.29,1.33-3.25-.77-4.72-1.28-2.33-.79-7.36-2.81-8.18.95-1.35,6.13,5.23,6.53,8.96,9.14,3.84,2.7,3.32,7.35,4.86,11.65.66,1.86,2.73,6.32,3.8,7.84.66.94,2.83,2.79,3.78,3.78.72.76,2.41,1.43,2.94,2.09,1.16,1.47,3.31,9.99,2.95,11.8-.32,1.55-6.8,5.58-8.44,7.17-1.8,1.77-6.13,6.22-7.52,7.89-.33.39-1.17,2.16-1.89,3.15-.6.82-.36,2.9-2.68,2.42-1.24-.26-6.91-4.48-8.36-5.57-.81-.6-.84-1.82-.92-1.89-1.18-.89-2.41-1.96-3.15-2.51-12.65-9.55-22.9-20.06-27.06-36.51-.58-2.28-1.08-4.56-1.26-6.92-.03-.42.03-.84,0-1.26-.27-4.71-.69-11.56,1.26-15.73,2.75-25.74,24.42-52.51,46-65.72,1.67-1.02,8.47-5.16,9.8-5.26,3.34-.23,20.68,15.28,24.94,18.25,17.21,12.03,35.54,18.24,55.83,20.63,1.46.17,2.81.47,4.41.63.21.02.42-.02.63,0,7.05.64,13.02,1.09,20.14,1.26,5.25.12,9.3.65,14.48,0,9.46-1.2,18.89-2.97,28.32-4.41.19-.06.68-.43,1.26-.63,1.9-.66,4.26-1.16,6.29-1.26,14.39-5.51,25.27-10.56,37.71-19.88,4.9-3.67,9.52-8.66,14.32-12.11,1.82-1.3,3.74-3.01,6.14-2.62,2.4.39,12.81,7.35,15.4,9.19,17.38,12.37,32.21,31.98,38.46,52.49,5.66,18.55,4.31,34.68-6.3,50.98Z"/><path class="k" d="M384.78,370.36c-5.77,8.88-10.87,13.05-18.88,19.51-1.53-6.41-5.61-12.07-9.46-17.29l-13.82-12.29c1.4-2.07,2.62-4.58,3.43-6.96.89-2.6,1.53-8.38,2.58-10,1.09-1.69,6.45-3.53,8.46-5.07,2.14-1.65,4.35-3.62,2.45-6.55-3.17-4.88-11.58,2.34-12.51,1.51-.89-4.71-2.47-9.26-3.78-13.84-1.09-3.8-3.63-16.6-6.33-18.57-1.96-1.43-4.71-.06-5.37,2.19-.6,2.02,1.08,6.49,1.63,8.82,2.91,12.4,11.24,33.23,1.88,44.06-.19.22-.41.43-.63.63-1.01,2.81-3.97,3.92-6.29,5.03-.07.31.21.89-.07,1.17-.57.56-6.27,2.15-7.48,2.61-10.02,3.81-19.67,5.62-30.21,6.92-25.69,3.17-54.61,3.13-80.56,2.52-20.19-.48-67.49-1.73-82.46-15.41-1.56-1.43-2.7-2.92-3.77-4.73l.62-.31c-1.13-1.14-.99-2.78-1.59-4.06-.21-.44-.88-.57-.91-.66-.11-.28-.41-.64-.63-1.26-2.56-7.12,1.76-24.62,3.95-32.23.37-1.29.56-2.78,1.71-3.65.43-2.45,1.93-7.22,1.41-9.26-.69-2.63-3.47-3.71-5.82-2.38-1.09.62-6,17.08-6.92,19.82-.63,2.17-1.78,10.91-2.83,11.98-1.29,1.33-3.25-.77-4.72-1.28-2.33-.79-7.36-2.81-8.18.95-1.35,6.13,5.23,6.53,8.96,9.14,3.84,2.7,3.32,7.35,4.86,11.65.66,1.86,2.73,6.32,3.8,7.84-10.34,6.46-19.94,16.31-23.29,28.33-12.65-9.55-22.9-20.06-27.06-36.51.98-1.27.35-6.03-1.26-6.92-.03-.42.03-.84,0-1.26,1.02-5.14.7-10.51,1.26-15.73,2.75-25.74,24.42-52.51,46-65.72,1.67-1.02,8.47-5.16,9.8-5.26,3.34-.23,20.68,15.28,24.94,18.25,17.21,12.03,35.54,18.24,55.83,20.63,1.46.17,2.81.47,4.41.63.21.02.42-.02.63,0,7.05.64,13.02,1.09,20.14,1.26,5.25.12,9.3.65,14.48,0,9.46-1.2,18.89-2.97,28.32-4.41.19-.06.68-.43,1.26-.63,1.9-.66,4.26-1.16,6.29-1.26,14.39-5.51,25.27-10.56,37.71-19.88,4.9-3.67,9.52-8.66,14.32-12.11,1.82-1.3,3.74-3.01,6.14-2.62,2.4.39,12.81,7.35,15.4,9.19,17.38,12.37,32.21,31.98,38.46,52.49,5.66,18.55,4.31,34.68-6.3,50.98Z"/><path class="o" d="M165.14,466.65c-11.24-.36-23.77-1.48-34.74-3.96-3.59-.82-11.53-2.44-12.67-6.21l-3.49-43.88c9.78-.19,16.21-6.38,22.27-13.28,1.19-1.35,4.55-6.88,5.35-7.27,1.55-.77,14.58,3.23,17.59,3.82,13.76,2.71,26.56,2.1,39.4,4.02,1.19.18.65,1.24,1.82,1.37,5.88.64,16.67-.73,23.34-.72,17.76.05,33.99.66,51.58-1.24,13.91-1.5,27.46-3.97,40.95-7.61.49-.03.95-.02,1.4.21s4.69,7.02,5.82,8.33c3.72,4.33,9.97,10.04,15.54,11.52,2.27.6,4.22-.74,5.8,1.88l-3.17,41.95c-.25,1.29-.42,2.6-1.57,3.46-2.33,1.74-15.44,4.27-19.02,4.89-18.69,3.25-46.48,4.51-65.08,1.28-4.71-.82-12.33-1.5-12.93-7.21-1.04-4.62-1.42-28.41-3.23-30.75-.58-.76-1.38-.8-2.24-.91-2.24-.29-17.32-.23-18.35.59-1.8,1.45-2.9,22.8-3.41,26.8-1.09,8.63-1.39,9.38-10.49,10.95-5.1.88-11.26,1.74-16.56,1.97h-23.92ZM190.94,465.4c-.67-.45-1.72.3-1.25.62.67.45,1.72-.3,1.25-.62Z"/><path class="n" d="M292.21,488.72c.35.23,2.62,4.95,5.13,6.53,2.15,1.36,5.29,1.25,6.27,1.91.54.37,1.87,4.62,3.8,6.27,7.2,6.12,14.55-1.45,21.25-4.48,3.47-1.57,7.32-2.33,10.61-3.86,2.45-1.14,5.08-3.92,7.13-3.64,6.59.91,16.19,9.19,18.81,15.24,2.16,4.99,1.73,5-2.44,7.49-20.91,12.5-70.91,6.64-93.64-.79-3.21-1.05-19.03-7.34-20.34-9.4-1.52-2.39-.13-19.71,1.92-21.31.97-.76,5.51,3.14,6.91,3.82,7.66,3.72,16.4,4.77,24.87,4.05,1.64-.14,9.29-2.1,9.71-1.83Z"/><path class="n" d="M208.33,482.45c1.79-.27,3.14,7.04,3.3,8.51.21,2,.43,11.61-.24,12.82-.91,1.64-12.19,6.46-14.63,7.4-24.81,9.59-60.45,13.81-86.4,7.42-2.91-.72-16.32-5.53-16.84-8.29-.44-2.33,5.26-9.84,7.08-11.59,2.38-2.3,10.25-7.25,13.37-7.42.98-.05,2.53,2.06,3.96,2.73,4.43,2.07,10.04,3.22,14.72,5.42,6.34,2.98,13.53,10.76,20.52,3.38,1.28-1.35,2.7-5.37,3.14-5.67,1.53-1.04,4.51-.4,7.57-3.13,1.29-1.15,3.46-5.08,4.18-5.29s7.5,1.65,9.35,1.8c7.28.61,17.54-.25,24.2-3.46,1.64-.79,6.1-4.55,6.71-4.64Z"/><path class="l" d="M201.01,516.37c2.07,1.78,8.16-4.46,9.44-3.14,1.37,1.42-1.91,7.91-3.43,9.47-4.62,4.73-24.22,10.93-31.18,12.56-.2.05-.43-.05-.63,0-7.19,1.63-14.99,2.6-22.36,3.16-1.2.09-2.53-.71-2.18,1.25-.21.02-.42-.02-.63,0l-30.21-.63c-.21-.03-.42.03-.63,0l-2.08-1.35-16.17-3.69c-4.75-2.29-7.4-4.17-8.11-9.82-1.1-8.81,3.73-3.32,9.04-1.49,3.13,1.08,5.93,1.77,9.14,2.51-.37,1.74.86,1.22,1.97,1.46,11.7,2.49,26.54,3.4,38.31,1.69,7.36-1.07,16.34-2.63,23.78-4.35,9-2.08,17.35-4.18,25.94-7.61Z"/><path class="l" d="M283.46,523.92c.2.04.43-.04.63,0-.37,1.91.93,1.11,2.08,1.35,20.91,4.35,45.76,5.86,66.53.23,5.02-1.36,9.52-3.86,14.47-5.35l-1.88,8.81c-2.71,3.85-3.15,3.53-7.55,5.03-18.69,6.41-37.17,5.31-56.64,4.41-2.01-.25-4.41-.33-6.29-.63.36-1.99-.98-1.07-2.15-1.28-9.34-1.69-35.04-7.51-40.64-14.78-1.71-2.22-3.31-5.69-2.21-8.49,9.9,4.91,21.43,9.19,32.33,11.2.88.16,1.28-.52,1.35-.51Z"/><path class="k" d="M121.08,364.69c.72.76,2.42,1.43,2.94,2.09,1.16,1.46,3.31,9.99,2.95,11.79-.31,1.56-6.8,5.58-8.43,7.17-1.81,1.77-6.14,6.22-7.53,7.89-1.91-2.52-8.39-4.77-10.08-6.6-1.97-2.14,4.19-11.05,5.99-11.04,2.4,0,8.27,9.45,11.66,7.28,1.43-.92-.61-3.15-1.02-4.06l-6.55-7.91c3.11-2.48,6.03-5.64,10.06-6.62Z"/><path class="k" d="M339.47,364.06l9.44,7.25c.12.7-6.98,6.29-7.84,8.51-1.56,4.06.81,4.98,4.24,3.14,1.12-.6,6.06-7.15,7.03-6.98,2.22.37,6.27,6.72,6.55,8.69.4,2.87-8.15,7.59-10.61,8.97-1.8-2.2-5.59-6.69-7.55-8.5-1.19-1.11-8.07-5.31-8.2-5.79-.52-1.88,1.64-9.83,2.68-11.68,1.23-2.2,3.08-2.32,4.26-3.61Z"/><path class="n" d="M153.96,490.39c-.26-.11-3.07-3.23-3.99-3.87-9.2-6.41-13.34-5.66-23.58-7.9-.61-.13-2.1.37-1.54-.95,1.65-3.87,11.4-5.71,15.26-5.21,4.91.63,19.66,6.66,21.12,11.63,1.11,3.76-4.22,7.58-7.29,6.29Z"/><path class="j" d="M365.9,389.87c-1.13.91-1.88,1.58-3.14,2.51l-1.27-3.14c-1.27-.95-8.14,7.94-10.69,8.18-.88-1.13-1.88-3-2.52-3.78,2.46-1.37,11.02-6.1,10.61-8.97-.28-1.97-4.32-8.31-6.55-8.69-.96-.16-5.91,6.39-7.03,6.99-3.43,1.83-5.8.91-4.24-3.15.85-2.22,7.96-7.81,7.84-8.51l-9.44-7.25c.95-1.04,2.38-2.65,3.15-3.77l13.82,12.29c3.85,5.22,7.93,10.88,9.46,17.29Z"/><path class="n" d="M333.8,478.6c-8.79.79-16.17,2.94-23.72,7.43-3.77,2.24-4.7,5.75-9.61,2.3-4.64-3.26-.78-6.14,2.48-8.79,4.84-3.93,14.72-7.75,20.92-7.07,3.25.36,9.02,2.67,9.92,6.13Z"/><path class="j" d="M117.56,379.22c.41.91,2.44,3.14,1.02,4.06-3.39,2.17-9.26-7.27-11.66-7.28-1.79-.01-7.96,8.9-5.99,11.04,1.69,1.83,8.17,4.08,10.08,6.6-.33.39-1.17,2.16-1.89,3.15-4.16-1.61-7.3-5.13-10.39-8.17l-1.57,3.13c-1.18-.89-2.41-1.96-3.15-2.51,3.35-12.02,12.95-21.87,23.29-28.33.66.94,2.83,2.79,3.78,3.78-4.04.98-6.96,4.14-10.07,6.62l6.55,7.91Z"/><path class="m" d="M184.02,475.46c6.02-.16,9.89-.5,15.55-1.87,1.37-.33,3.14.37,4.59-.65-1.15,6.61-9.07,8.78-14.86,9.36s-22.59.82-25.41-5.91c-.55-1.33.93-.81,1.54-.95,1.68-.37,3.05-.5,4.75-.61-1.12,1.71-.61,1.18.93,1.26,4.39.21,8.84-.16,13.24,0l-.33-.63Z"/><path class="m" d="M272.13,482.38c-5.38-.46-15.08-2.3-15.73-8.81,3.48.81,8.83-.15,12.15.64,1.85.44.24.7,4.21.62-.35,1.91.96,1.21,2.17,1.26,5.5.22,10.83-.31,16.08-.63,1.45-.09,2.95.06,4.4,0,.32,1.38-.78,1.31-1.88,2.51-6.15,4.72-14.27,2.79-21.4,4.41Z"/><path class="k" d="M248.84,382.31v10.7c-5.6.21-11.24.62-16.99.63.33-3.97-1-8.43,1.26-11.96,5.27.01,10.57,1.04,15.73.63Z"/><path class="k" d="M211.08,381.68l7.23,1.27.32-1.27c.42,0,.84,0,1.26,0,2.12,1.98,6.05-.17,7.55,2.52-.02,3,.89,6.4,0,8.81-5.89-.02-10.98.17-16.99,0v-11.33c.21,0,.42,0,.63,0Z"/><path class="k" d="M269.61,381.05c-.36,3.42.8,7.64-.63,10.7-3.92-.15-3.48,1.12-4.68,1.31-3.2.5-8.14-.22-11.68-.05,1.34-3.71.32-8.06.63-11.96,4.99-.39,10.76.28,16.36,0Z"/><path class="l" d="M121.1,488.64c-.47-.72.61-3.28,1.65-3.63,4.56-1.56,26.85,4.84,26.55,10.17-.1,1.7-2.51,3.8-4.46,3.47s-10.17-5.29-13.08-6.5c-1.66-.69-10.36-3.04-10.66-3.5Z"/><path class="k" d="M237.51,280.98l.63,10.7c-5.27.19-11.09.16-16.36,0l.63-10.7c5.01.09,10.1.1,15.11,0Z"/><path class="l" d="M335.7,484.9c.82.74,1.71.15,1.94,1.55.54,3.3-.91,1.73-2.6,2.52-.62.29-1.01.87-1.23.97-3.58,1.63-7.32,2.9-10.92,4.49-2.42,1.07-7.67,5.01-9.83,4.01-1.2-.55-3.09-3.38-2.25-4.72,1.25-1.99,12.82-7.22,15.45-7.56.96-.13,5.95.72,7.87,0l-.94-1.26c.75-.06,1.79-.08,2.52,0Z"/><path class="k" d="M171.43,379.79c4.51.5,10.29.77,14.48.63l-.63,11.33c-.41-.03-.84.04-1.26,0h-.63c-4.42-.42-8.82-.58-13.22-1.26,2.37-2.88.86-7.21,1.26-10.7Z"/><path class="k" d="M197.86,381.68l.31.62.31-.62c.42,0,.84,0,1.26,0,1.87,1.8,5.69-.87,6.92,1.89v.63c-1.05.98-1.06,4.03,0,5.03v1.26c-1.78-.25-1.78.88,0,.63v.63c-4.95,1.23-11.09-1.55-15.73.63-.21-.01-.42.01-.63,0,.5-3.03-1-8.34,1.26-10.7.51.25,5.03-.03,6.29,0Z"/><path class="k" d="M308,376.65c4.72-1,11.84-4.53,16.07-5.02,1.4-.16.91.54.95,1.58.04,1.24-.37,4.41-.83,5.48-1.36,3.2-12.66,7.19-16.19,7.41,1.03-2.8,1.02-6.69,0-9.44Z"/><path class="m" d="M344.74,402.88c.16.31,1.61-.1,1.03,1.45-6.28.95-14.31-5.98-17.88-10.75-4.2-5.61-.69-8.77,4.6-5.23,5.23,3.5,9.42,9.1,12.25,14.53Z"/><path class="k" d="M169.54,379.16c-2.36,2.16-1.61,7.67-1.89,10.7-5.31-.91-10.7-1.65-15.73-3.78.2.01.43.02.63,0,.62-.06,1.27.05,1.89,0l-.63-8.82c4.79.89,10.78,1.32,15.73,1.89Z"/><path class="k" d="M286.6,379.79c1.91-.35,1.21.96,1.26,2.17.13,2.88.24,5.68.63,8.53-1.48.21-2.91.46-4.41.63-.8-.77-4.53-1.25-5.36-1.14-.2.03-1.95,2.56-3.45,1.14-.59-.56,1.31-5.54-1.26-5.04-.08-1.73-.28-3.35-.63-5.03,3.56,0,9.39-.82,13.22-1.26Z"/><path class="k" d="M218,291.68c-5.37-.24-9.4-1.15-14.48-1.88v-9.45c.63.05,1.27-.04,1.89,0,4.25.28,8.32.52,12.59.63.03,1.26-.05,2.53,0,3.78.09,2.31.02,4.59,0,6.92Z"/><path class="k" d="M303.6,377.28c.35.05,1.18-.11,1.26,0,.26.36.29,7.46.63,8.82-.56-.19-.36-1.51-1.25-1.26-.04.65.3,1.51-.41,1.93-1.27.76-9.87,1.95-12.19,2.47.14-3.38-.2-6.84-1.26-10.07,4.32-.55,8.94-1.1,13.22-1.89Z"/><path class="k" d="M153.18,377.28c-3.69.84-.75,4.78-2.52,7.55l-13.22-4.41c-1.4-1.34-3.93-6.69-2.51-8.18.65-.69,15.86,4.57,18.25,5.03Z"/><path class="k" d="M274.02,278.46l.63,7.55c-5.42,1.47-8.94,2.21-14.48,3.15l-.63-8.81c4.25-.39,10.21-1.21,14.48-1.89Z"/><path class="k" d="M255.76,289.8c-4.54.63-9.14,1.64-13.84,1.88.81-2.3-.24-4.49,0-6.92v-3.78c4.64-.13,9.21-.28,13.84-.63,0,.42.01.84,0,1.26-.04,2.93,1,5.31,0,8.19Z"/><path class="k" d="M185.9,278.46c3.09.56,3.26-.07,5.3-.01.41.01.11,1.31,1.28,1.35,2.3.08,4.45-.32,7.26-.08v9.44c-5.68-.98-8.93-1.68-14.48-3.15l.63-7.55Z"/><path class="m" d="M124.23,391.12c2.22-2.17,4.53-6.21,8.17-3.44,2.31,1.75.67,3.95-.83,5.74s-6.68,6.43-8.59,7.77l-8.18,2.51,4.4-7.55c.2-.22.43-.41.63-.63,1.09-1.23,3.13-3.16,4.41-4.41Z"/><path class="k" d="M182.76,285.39c-7.49-2.19-20.85-6.37-26.44-11.96-1.55.5-1.16-1.19-1.26-1.26-1.12-.77-4.52-1.05-4.4-3.77l6.29,3.14c2.37-.42.65.39,2.15.76,2.41.6,4.04,1.26,6.03,1.76-.2,2.51-.3,3.98,2.21,5.03l.31-4.4c3.86.93,8.05,1.71,11.96,2.52.63,2.87.35,6.46,3.15,8.18Z"/><path class="k" d="M292.9,279.1c-5.42,2.62-7.78,3.75-13.85,5.66l1.26-7.55c3.42-.65,7.98-1.63,11.33-2.52-.07,1.54-.19,3.42,1.26,4.41Z"/><path class="d" d="M284.09,523.92c22.18,3.96,41.78,6.66,64.2,1.58,7.15-1.62,12.78-3.89,19.5-6.61.43,4.65.05,6.43-2.51,10.07l1.88-8.81c-4.95,1.49-9.44,3.99-14.47,5.35-20.77,5.63-45.62,4.12-66.53-.23-1.15-.24-2.45.56-2.08-1.35Z"/><path class="j" d="M185.9,380.42c1.35-.05,4.21-.28,5.25,0,.66.18.35,1.24.41,1.27-2.25,2.36-.76,7.67-1.26,10.7-1.83-.12-3.6-.52-5.03-.63l.63-11.33Z"/><path class="j" d="M233.11,381.68c-2.26,3.53-.92,7.99-1.26,11.96-1.72,0-3.69-.63-4.41-.63.89-2.41-.02-5.81,0-8.81,0-.84,0-1.68,0-2.52,1.88,0,3.78,0,5.66,0Z"/><path class="j" d="M273.39,381.05c.35,1.69.55,3.3.63,5.03.09,1.88-.06,3.78,0,5.66-2.29.11-2.88.08-5.03,0,1.43-3.06.27-7.28.63-10.7,1.72-.09,2.42,0,3.78,0Z"/><path class="d" d="M357.72,533.99c-17.57,8.2-38.01,6.75-56.64,4.41,19.47.91,37.95,2,56.64-4.41Z"/><path class="j" d="M253.25,381.05c-.31,3.9.71,8.25-.63,11.96-1.25.06-2.52-.05-3.78,0v-10.7c.83-.07,3-1.15,4.41-1.26Z"/><path class="k" d="M309.26,269.03c-3.81,4.34-9.44,6.86-14.48,9.44-.06-1.77.67-3.61-1.25-4.41,5.29-1.45,10.38-3.78,15.73-5.03Z"/><path class="k" d="M109.12,396.79c-.6.82-.36,2.9-2.68,2.42-1.25-.26-6.92-4.47-8.37-5.57-.8-.6-.83-1.82-.92-1.89l1.57-3.13c3.08,3.04,6.22,6.56,10.38,8.17Z"/><path class="j" d="M241.92,291.68c-1.26.07-2.53-.04-3.78,0l-.63-10.7c1.47-.02,2.94.05,4.41,0v3.78c-.24,2.43.81,4.62,0,6.92Z"/><path class="j" d="M222.41,280.98l-.63,10.7c-1.26-.04-2.52.06-3.78,0,.01-2.33.09-4.61,0-6.92-.05-1.25.03-2.52,0-3.78,1.47.04,2.94-.03,4.41,0Z"/><path class="k" d="M350.8,397.42c2.55-.24,9.42-9.13,10.69-8.18l1.27,3.15c-2.74,2.02-5.73,5.47-9.43,6.64-2.74.87-1.54-.34-2.53-1.6Z"/><path class="j" d="M210.45,381.68v11.33c-1.26-.04-2.52.04-3.78,0v-11.33c1.26.01,2.52-.01,3.78,0Z"/><path class="j" d="M280.31,277.21l-1.26,7.55c-1.5.47-2.89.85-4.41,1.26l-.63-7.55c2.02-.32,4.25-.87,6.3-1.26Z"/><path class="j" d="M185.9,278.47l-.63,7.55c-.84-.22-1.54-.35-2.51-.63-2.8-1.72-2.52-5.31-3.15-8.18,2.05.42,4.25.89,6.29,1.26Z"/><path class="j" d="M255.76,289.8c1-2.88-.04-5.26,0-8.19.01-.42,0-.84,0-1.26,1.25-.09,2.54.12,3.78,0l.63,8.82c-1.52.25-2.89.41-4.41.63Z"/><path class="d" d="M294.79,537.77c-12.08-1.91-47.22-7.97-45.95-24.24.3-3.82,1.28-.57,1.73-.34,10.3,5.17,21.78,7.87,32.89,10.73-.07-.01-.47.67-1.35.51-10.9-2-22.43-6.29-32.33-11.2-1.09,2.79.5,6.26,2.21,8.49,5.6,7.26,31.3,13.09,40.64,14.78,1.17.21,2.52-.71,2.15,1.28Z"/><path class="j" d="M171.43,379.79c-.4,3.49,1.11,7.82-1.26,10.7-1.11-.17-1.91-.53-2.52-.63.28-3.03-.47-8.54,1.89-10.7.95.11,1.71.61,1.89.63Z"/><path class="j" d="M290.38,379.16c1.06,3.23,1.4,6.69,1.26,10.07-.36.08-.85-.06-1.26,0l.63.62c-.57.09-1.39.47-2.52.63-.39-2.85-.49-5.65-.63-8.53-.06-1.21.65-2.52-1.26-2.17,1-.12,2.45-.46,3.78-.63Z"/><path class="j" d="M203.53,280.35v9.44c-1.32-.19-2.49-.41-3.78-.63v-9.44c1.28.11,2.49.54,3.78.63Z"/><path class="d" d="M151.29,528.33c-11.77,1.71-26.61.8-38.31-1.69-1.11-.24-2.34.28-1.97-1.46,10.63,2.44,22.76,3.62,33.7,3.17,2.2-.09,4.59-1.54,6.58-.02Z"/><path class="j" d="M308,376.65c1.02,2.75,1.03,6.64,0,9.44-.21.01-.42,0-.63,0-.57-.03-1.5.13-1.89,0-.34-1.36-.37-8.46-.63-8.82-.07-.1-.91.06-1.26,0,1.58-.29,3.21-.38,4.41-.63Z"/><path class="d" d="M150.03,539.66c-1.65.13-4.85.63-5.98.63h-13.22c-2.82,0-7.98-.84-11.01-1.26l30.21.63Z"/><path class="j" d="M153.81,377.28l.63,8.82c-.62.05-1.27-.06-1.89,0l-1.89-1.26c1.77-2.77-1.17-6.72,2.52-7.55.2.04.43-.04.63,0Z"/><path class="d" d="M291.01,475.46c-5.25.32-10.58.85-16.08.63-1.21-.05-2.53.65-2.17-1.26,5.89-.13,12.54-.43,18.25.63Z"/><path class="d" d="M201.01,516.37c3.43-1.37,6.63-3.07,10.07-4.4,1.59,16.92-22.99,20.22-35.24,23.28,6.97-1.63,26.56-7.82,31.18-12.56,1.52-1.56,4.8-8.05,3.43-9.47-1.27-1.32-7.37,4.92-9.44,3.14Z"/><path class="m" d="M305.49,386.09c.39.13,1.32-.03,1.89,0-4.75,3-10.97,2.93-16.36,3.78l-.63-.62c.41-.07.9.07,1.26,0,2.32-.52,10.92-1.72,12.19-2.47.71-.42.36-1.28.41-1.93.89-.25.69,1.07,1.25,1.26Z"/><path class="d" d="M175.21,535.25c-7.84,2.58-16.32,3.71-24.55,4.41-.35-1.96.98-1.16,2.18-1.25,7.38-.55,15.17-1.52,22.36-3.16Z"/><path class="m" d="M206.67,391.75v1.26c-5.3-.17-10.44-.29-15.73-.63,4.65-2.18,10.78.6,15.73-.63Z"/><path class="m" d="M274.02,386.09c2.57-.5.67,4.48,1.26,5.04,1.5,1.42,3.25-1.11,3.45-1.14.83-.12,4.56.36,5.36,1.14-3.63.41-6.49.45-10.07.63-.06-1.88.09-3.79,0-5.66Z"/><path class="d" d="M293.53,477.98c-.82.89-2.45,2.82-3.45,3.21-3.86,1.49-13.68,1.56-17.95,1.19,7.13-1.62,15.25.32,21.4-4.41Z"/><path class="d" d="M100.94,533.99l16.17,3.69,2.08,1.35c-5.74-.85-13.05-2.53-18.25-5.03Z"/><path class="m" d="M137.44,380.42l13.22,4.41,1.89,1.26c-.2.02-.43.01-.63,0-4.28-.23-11.43-2.74-14.48-5.66Z"/><path class="j" d="M294.78,278.47c-.67.34-1.4.39-1.88.63-1.45-.99-1.33-2.87-1.26-4.41.58-.15,1.21-.45,1.89-.63,1.92.8,1.19,2.64,1.25,4.41Z"/><path class="d" d="M172.69,474.83l.31.62.31-.62c.41.01.85-.05,1.26,0,.19.6.72.59,1.26.63.62.05,1.26-.02,1.89,0,.21,0,.42,0,.63,0,.42,0,.84.01,1.26,0,.63-.02,1.26,0,1.89,0,.84-.01,1.68.02,2.52,0l.33.63c-4.4-.16-8.85.21-13.24,0-1.54-.07-2.06.45-.93-1.26.82-.06,1.69-.01,2.52,0Z"/><path class="j" d="M167.65,274.69l-.31,4.4c-2.51-1.05-2.41-2.52-2.21-5.03.83.21,1.7.43,2.52.63Z"/><path class="d" d="M66.95,328.82c-.56,5.22-.24,10.59-1.26,15.73-.27-4.71-.69-11.56,1.26-15.73Z"/><path class="d" d="M119.19,396.16l-4.4,7.55,8.18-2.51c-1.32.93-8.24,4.92-9.44,3.77s4.73-7.75,5.66-8.81Z"/><path class="m" d="M227.44,381.68c0,.84,0,1.68,0,2.52-1.51-2.69-5.43-.54-7.55-2.52,2.51.02,5.04,0,7.55,0Z"/><path class="d" d="M66.95,352.73c-.58-2.28-1.08-4.56-1.26-6.92,1.61.89,2.24,5.65,1.26,6.92Z"/><path class="d" d="M333.18,484.9l.94,1.26c-1.92.71-6.9-.13-7.87,0,2.21.2,4.95-1.1,6.92-1.26Z"/><path class="m" d="M218.63,381.68l-.32,1.27-7.23-1.27c2.51.02,5.04-.03,7.55,0Z"/><path class="m" d="M206.67,381.68v1.89c-1.24-2.75-5.05-.08-6.92-1.89,2.3.04,4.62-.03,6.92,0Z"/><path class="d" d="M335.7,484.9c2.55.29,3.08,1.07,3.13,3.75l-5.02,1.28c.22-.1.6-.67,1.23-.97,1.69-.79,3.14.79,2.6-2.52-.23-1.39-1.11-.81-1.94-1.55Z"/><path class="d" d="M124.21,354.31l-.62.31c-.88-1.49-1.86-3.25-1.88-5.03.03.09.7.22.91.66.6,1.28.46,2.92,1.59,4.06Z"/><path class="d" d="M119.82,395.53c1.03-2.01,2.39-3.38,4.41-4.41-1.28,1.25-3.31,3.18-4.41,4.41Z"/><path class="m" d="M181.5,475.46c-.63,0-1.26-.02-1.89,0,.64-.75,1.25-.75,1.89,0Z"/><path class="m" d="M175.83,475.46c-.53-.04-1.07-.03-1.26-.63.53.06,1.06.02,1.26.63Z"/><path class="m" d="M197.86,381.68c.21,0,.42,0,.63,0l-.31.62-.31-.62Z"/><path class="m" d="M172.69,474.83c.21,0,.42,0,.63,0l-.31.62-.31-.62Z"/><path class="m" d="M178.35,475.46c-.21,0-.42,0-.63,0h.63Z"/><path class="j" d="M183.39,391.75h.63c-.07,0-.27.03-.63,0Z"/><path class="m" d="M206.67,389.23c-1.06-1.01-1.05-4.06,0-5.03v5.03Z"/><path class="m" d="M206.67,390.49v.63c-1.78.25-1.78-.88,0-.63Z"/><path class="e" d="M34.52,139.63c1.22.28,2.13,1.27,2.36,2.5.66,3.65,2.41,9.55,7.38,14.24,7.89,7.46,17.86,10.54,29.36,5.34.95-.43,1.64-1.29,1.84-2.32,5.53-29.42,8.71-33.52,8.71-33.52,0,0-8.07,18.87-7.74,48.26.09,8.11.2,18.17,2.88,28.32,9.32,35.36,45.06,54.33,56.64,60.48,32.24,17.11,99.84,16.32,99.84,16.32,0,0,51.95-.89,82.56-14.88,15.27-6.98,30.44-13.92,42.72-30.24,21.61-28.71,18.9-61.6,17.61-74.9-1.33-13.74-7.38-25.2-7.38-25.2l6.85,23.38c.33,1.14,1.28,1.99,2.45,2.21,5.51,1.03,21.47,3.3,28.47-3.25,4.74-4.43,6.55-9.84,7.27-13.29.31-1.46,1.58-2.49,3.08-2.52,9.64-.17,15.75-3.55,18.45-5.32,16-10.44,19.53-34.13,12.96-50.4-1.71-4.22-3.93-7.54-5.9-9.98-.76-.94-.89-2.22-.38-3.31.77-1.61,1.5-3.59,1.96-5.91,3.92-20.15-18.73-41.7-36-51.36-7-3.92-30.5-17.05-58.08-7.2-25.26,9.03-36.12,30.97-39.58,39.78-.69,1.76-2.77,2.53-4.43,1.62-14.24-7.79-43.03-20.74-81.27-20.28-38.41.47-66.99,14.24-81.11,22.46-1.71,1-3.9.18-4.55-1.69-3.11-9.05-10.18-24.22-25.71-34.21C86.25-4.23,49.51,10.56,31.29,24.85c-6.58,5.16-22.86,17.93-22.08,35.52.24,5.34,1.99,9.8,3.76,13.07.59,1.09.48,2.43-.29,3.41-3.5,4.47-11.95,17.33-8.27,33.44,3.3,14.45,15.07,25.86,30.1,29.34Z"/><path class="i" d="M115.11,70.49c-.46-4.34-2.08-13.33-9.12-20.16-12.24-11.86-34.97-11.45-48.96.96-15.43,13.69-13.83,36.81-5.76,50.4,2.26,3.8,9.58,14.52,23.04,17.76,5.52,1.33,10.33.97,13.44.48"/><path class="b" d="M114.86,70.52c-1.22-10.73-7.49-20.77-17.62-24.84-12.95-5.38-28.87-2.34-39.13,7.09-18.11,16.91-11.14,50.24,9.34,62.21,5.91,3.56,13.03,5.15,20.26,4.71l.08.49c-7.09,1.89-15.07,1.23-21.98-2.09-25.33-11.76-31.21-49.51-10.12-68.02,16.85-14.89,48.46-13.15,57.28,9.69,1.33,3.44,2.1,7.06,2.39,10.7l-.5.05h0Z"/><path class="i" d="M341.61,73.25c.46-4.34,2.08-13.33,9.12-20.16,12.24-11.86,34.97-11.45,48.96.96,15.43,13.69,13.83,36.81,5.76,50.4-2.26,3.8-9.58,14.52-23.04,17.76-5.52,1.33-10.33.97-13.44.48"/><path class="b" d="M341.36,73.22c1.98-30.95,38.39-38.51,59.67-20.39,21.09,18.51,15.2,56.26-10.12,68.02-6.91,3.32-14.89,3.98-21.98,2.09l.08-.49c7.23.44,14.35-1.15,20.26-4.71,20.48-11.96,27.45-45.3,9.34-62.21-12.69-11.75-34.93-13.69-47.89-1.32-5.07,4.96-7.94,11.94-8.86,19.07l-.5-.05h0Z"/><path class="h" d="M174.54,155.69c0,11.33-9.19,20.52-20.52,20.52s-20.52-9.19-20.52-20.52,10.75-23.64,22.08-23.64,18.96,12.31,18.96,23.64Z"/><path class="f" d="M164.7,146.45c.11,7.47-11.39,7.47-11.28,0-.11-7.47,11.39-7.47,11.28,0Z"/><path class="h" d="M320.22,155.09c0,11.33-9.19,20.52-20.52,20.52s-20.52-9.19-20.52-20.52,10.75-23.64,22.08-23.64,18.96,12.31,18.96,23.64Z"/><path class="b" d="M186.36,228.71c11.6,14.42,33.34,13.64,43.43-1.99h-7.77c10.85,17.34,36.59,17.68,46.65-.72,2.78-5.08-4.99-9.63-7.77-4.54-6.72,12.29-23.7,12.55-31.11.72-1.84-2.94-5.92-2.87-7.77,0-7.18,11.13-21.52,9.83-29.29.17-3.63-4.51-9.96,1.89-6.36,6.36h0Z"/><path class="f" d="M300.3,147.29c.11,7.47-11.39,7.47-11.28,0-.11-7.47,11.39-7.47,11.28,0Z"/><path class="c" d="M222.07,217.1c-4.7-.5-16.12-1.71-24.17-10.68-1.86-2.08-4.95-6.13-6.67-12.61,0-2.51,0-5.04,0-7.55,0-.21,0-.42,0-.63,0-.84-.03-1.68,0-2.52.02-.42-.03-.84,0-1.26.79-12.83,4.43-24.41,10.07-35.87,23.69-34.02,50.59-11.35,57.9,20.14,1.59,6.85,2.54,18.56,1.91,25.51-.3,3.36-1.58,6.55-2.54,9.73-1.34,1.98-3.21,4.33-5.79,6.62-8.52,7.57-18.33,8.78-21.53,9.14-1.28.14-4.71.46-9.18-.02ZM223.8,137.96c-17.92,2.51-29.31,45.84-21.38,59.44,9.69,16.61,48.03,14.05,49.84-8.32,1.23-15.21-7.43-54.06-28.46-51.11Z"/><path class="g" d="M223.8,137.96c21.03-2.95,29.69,35.9,28.46,51.11-1.81,22.37-40.15,24.94-49.84,8.32-7.93-13.59,3.45-56.93,21.38-59.44Z"/></svg>