<svg xmlns="http://www.w3.org/2000/svg" width="80" height="80" fill="none" viewBox="0 0 80 80"><rect width="50" height="45" x="15" y="20" fill="#3B82F6" rx="4"/><rect width="46" height="38" x="17" y="25" fill="#FFF" rx="2"/><rect width="50" height="12" x="15" y="20" fill="#1D4ED8" rx="4"/><rect width="3" height="16" x="25" y="12" fill="#6B7280" rx="1.5"/><rect width="3" height="16" x="52" y="12" fill="#6B7280" rx="1.5"/><line x1="25" x2="55" y1="35" y2="35" stroke="#E5E7EB" stroke-width="1"/><line x1="25" x2="55" y1="45" y2="45" stroke="#E5E7EB" stroke-width="1"/><line x1="25" x2="55" y1="55" y2="55" stroke="#E5E7EB" stroke-width="1"/><line x1="32" x2="32" y1="30" y2="60" stroke="#E5E7EB" stroke-width="1"/><line x1="40" x2="40" y1="30" y2="60" stroke="#E5E7EB" stroke-width="1"/><line x1="48" x2="48" y1="30" y2="60" stroke="#E5E7EB" stroke-width="1"/><circle cx="28" cy="38" r="2" fill="#10B981"/><circle cx="36" cy="48" r="2" fill="#F59E0B"/><circle cx="44" cy="38" r="2" fill="#EF4444"/><circle cx="52" cy="58" r="2" fill="#8B5CF6"/><circle cx="60" cy="15" r="12" fill="#FFF" stroke="#3B82F6" stroke-width="2"/><circle cx="60" cy="15" r="1" fill="#3B82F6"/><line x1="60" x2="60" y1="15" y2="8" stroke="#3B82F6" stroke-linecap="round" stroke-width="2"/><line x1="60" x2="65" y1="15" y2="15" stroke="#3B82F6" stroke-linecap="round" stroke-width="1.5"/></svg>