<svg xmlns="http://www.w3.org/2000/svg" width="80" height="80" fill="none" viewBox="0 0 80 80"><rect width="60" height="50" x="10" y="15" fill="#FFF" stroke="#E5E7EB" stroke-width="2" rx="4"/><rect width="8" height="15" x="18" y="45" fill="#10B981" rx="1"/><rect width="8" height="25" x="30" y="35" fill="#3B82F6" rx="1"/><rect width="8" height="35" x="42" y="25" fill="#8B5CF6" rx="1"/><rect width="8" height="20" x="54" y="40" fill="#F59E0B" rx="1"/><line x1="15" x2="65" y1="25" y2="25" stroke="#F3F4F6" stroke-width="1"/><line x1="15" x2="65" y1="35" y2="35" stroke="#F3F4F6" stroke-width="1"/><line x1="15" x2="65" y1="45" y2="45" stroke="#F3F4F6" stroke-width="1"/><line x1="15" x2="65" y1="55" y2="55" stroke="#F3F4F6" stroke-width="1"/><path fill="none" stroke="#EF4444" stroke-linecap="round" stroke-width="2" d="M18 52 L30 42 L42 32 L54 47"/><circle cx="18" cy="52" r="2" fill="#EF4444"/><circle cx="30" cy="42" r="2" fill="#EF4444"/><circle cx="42" cy="32" r="2" fill="#EF4444"/><circle cx="54" cy="47" r="2" fill="#EF4444"/><circle cx="55" cy="25" r="12" fill="none" stroke="#E5E7EB" stroke-width="3"/><circle cx="55" cy="25" r="12" fill="none" stroke="#10B981" stroke-dasharray="28.27" stroke-dashoffset="7" stroke-width="3" transform="rotate(-90 55 25)"/><text x="55" y="28" fill="#374151" font-family="Arial" font-size="8" font-weight="bold" text-anchor="middle">75%</text><polygon fill="#FCD34D" points="25 8 26 11 29 11 27 13 28 16 25 14 22 16 23 13 21 11 24 11"/><polygon fill="#FCD34D" points="40 10 41 12 43 12 42 13.5 42.5 15 40 14 37.5 15 38 13.5 37 12 39 12"/></svg>