<svg width="80" height="80" viewBox="0 0 80 80" fill="none" xmlns="http://www.w3.org/2000/svg">
  <!-- Calendar Base -->
  <rect x="15" y="20" width="50" height="45" rx="4" fill="#3B82F6"/>
  <rect x="17" y="25" width="46" height="38" rx="2" fill="#FFFFFF"/>
  
  <!-- Calendar Header -->
  <rect x="15" y="20" width="50" height="12" rx="4" fill="#1D4ED8"/>
  
  <!-- Calendar Rings -->
  <rect x="25" y="12" width="3" height="16" rx="1.5" fill="#6B7280"/>
  <rect x="52" y="12" width="3" height="16" rx="1.5" fill="#6B7280"/>
  
  <!-- Grid Lines -->
  <line x1="25" y1="35" x2="55" y2="35" stroke="#E5E7EB" stroke-width="1"/>
  <line x1="25" y1="45" x2="55" y2="45" stroke="#E5E7EB" stroke-width="1"/>
  <line x1="25" y1="55" x2="55" y2="55" stroke="#E5E7EB" stroke-width="1"/>
  <line x1="32" y1="30" x2="32" y2="60" stroke="#E5E7EB" stroke-width="1"/>
  <line x1="40" y1="30" x2="40" y2="60" stroke="#E5E7EB" stroke-width="1"/>
  <line x1="48" y1="30" x2="48" y2="60" stroke="#E5E7EB" stroke-width="1"/>
  
  <!-- Calendar Dots (scheduled items) -->
  <circle cx="28" cy="38" r="2" fill="#10B981"/>
  <circle cx="36" cy="48" r="2" fill="#F59E0B"/>
  <circle cx="44" cy="38" r="2" fill="#EF4444"/>
  <circle cx="52" cy="58" r="2" fill="#8B5CF6"/>
  
  <!-- Clock Icon -->
  <circle cx="60" cy="15" r="12" fill="#FFFFFF" stroke="#3B82F6" stroke-width="2"/>
  <circle cx="60" cy="15" r="1" fill="#3B82F6"/>
  <line x1="60" y1="15" x2="60" y2="8" stroke="#3B82F6" stroke-width="2" stroke-linecap="round"/>
  <line x1="60" y1="15" x2="65" y2="15" stroke="#3B82F6" stroke-width="1.5" stroke-linecap="round"/>
</svg> 