<svg xmlns="http://www.w3.org/2000/svg" width="80" height="80" fill="none" viewBox="0 0 80 80"><rect width="20" height="8" x="30" y="60" fill="#8B5CF6" rx="2"/><rect width="30" height="4" x="25" y="68" fill="#7C3AED" rx="2"/><path fill="#FCD34D" d="M20 25 L20 45 Q20 50 25 50 L55 50 Q60 50 60 45 L60 25 Q60 20 55 20 L25 20 Q20 20 20 25 Z"/><path fill="#F59E0B" d="M22 25 L22 43 Q22 47 26 47 L54 47 Q58 47 58 43 L58 25 Q58 22 55 22 L25 22 Q22 22 22 25 Z"/><ellipse cx="15" cy="35" fill="#D1D5DB" rx="5" ry="8"/><ellipse cx="65" cy="35" fill="#D1D5DB" rx="5" ry="8"/><polygon fill="#EF4444" points="40 8 42 14 48 14 43 18 45 24 40 20 35 24 37 18 32 14 38 14"/><polygon fill="#F97316" points="25 35 26 37 28 37 26.5 38.5 27 40 25 39 23 40 23.5 38.5 22 37 24 37"/><polygon fill="#F97316" points="55 35 56 37 58 37 56.5 38.5 57 40 55 39 53 40 53.5 38.5 52 37 54 37"/></svg>